<svg xmlns="http://www.w3.org/2000/svg" xmlns:xlink="http://www.w3.org/1999/xlink" viewBox="0 0 425.77 164.29"><defs><style>.cls-1{fill:url(#Degradado_sin_nombre_50);}.cls-2{fill:url(#Degradado_sin_nombre_3);}.cls-3{fill:url(#Degradado_sin_nombre_75);}.cls-4{fill:url(#Degradado_sin_nombre_27);}.cls-5{fill:url(#Degradado_sin_nombre_5);}.cls-6{fill:url(#Degradado_sin_nombre_10);}.cls-7{fill:url(#Degradado_sin_nombre_12);}.cls-8{fill:url(#Degradado_sin_nombre_22);}</style><linearGradient id="Degradado_sin_nombre_50" x1="226.88" y1="49.12" x2="226.88" y2="163.39" gradientUnits="userSpaceOnUse"><stop offset="0" stop-color="#00564b"/><stop offset="0.66" stop-color="#00954b"/><stop offset="1" stop-color="#00b04b"/></linearGradient><linearGradient id="Degradado_sin_nombre_3" x1="158.1" y1="19.19" x2="295.66" y2="19.19" gradientUnits="userSpaceOnUse"><stop offset="0" stop-color="#00564b"/><stop offset="0.13" stop-color="#005d4b"/><stop offset="0.31" stop-color="#00704b"/><stop offset="0.53" stop-color="#00904b"/><stop offset="0.72" stop-color="#00b04b"/></linearGradient><linearGradient id="Degradado_sin_nombre_75" x1="359.93" y1="80.31" x2="407.2" y2="80.31" gradientUnits="userSpaceOnUse"><stop offset="0" stop-color="#f88f33"/><stop offset="1" stop-color="#f85233"/></linearGradient><linearGradient id="Degradado_sin_nombre_27" x1="361.1" x2="361.1" y2="163.72" gradientUnits="userSpaceOnUse"><stop offset="0.21" stop-color="#00564b"/><stop offset="0.35" stop-color="#005e4b"/><stop offset="0.57" stop-color="#00734b"/><stop offset="0.83" stop-color="#00954b"/><stop offset="1" stop-color="#00b04b"/></linearGradient><linearGradient id="Degradado_sin_nombre_5" x1="296.43" y1="70.74" x2="425.26" y2="70.74" gradientUnits="userSpaceOnUse"><stop offset="0" stop-color="#00564b"/><stop offset="0.13" stop-color="#005c4b"/><stop offset="0.3" stop-color="#006c4b"/><stop offset="0.5" stop-color="#00884b"/><stop offset="0.7" stop-color="#00ad4b"/><stop offset="0.72" stop-color="#00b04b"/></linearGradient><linearGradient id="Degradado_sin_nombre_10" x1="135.92" y1="46.75" x2="135.92" y2="164.29" gradientUnits="userSpaceOnUse"><stop offset="0" stop-color="#00564b"/><stop offset="0.02" stop-color="#00594b"/><stop offset="0.22" stop-color="#007f4b"/><stop offset="0.42" stop-color="#009a4b"/><stop offset="0.59" stop-color="#00aa4b"/><stop offset="0.72" stop-color="#00b04b"/></linearGradient><linearGradient id="Degradado_sin_nombre_12" x1="24.84" y1="59.69" x2="131.49" y2="59.69" gradientUnits="userSpaceOnUse"><stop offset="0" stop-color="#00564b"/><stop offset="0.13" stop-color="#005f4b"/><stop offset="0.34" stop-color="#00774b"/><stop offset="0.61" stop-color="#009f4b"/><stop offset="0.72" stop-color="#00b04b"/></linearGradient><linearGradient id="Degradado_sin_nombre_22" y1="127.97" x2="116" y2="127.97" gradientUnits="userSpaceOnUse"><stop offset="0" stop-color="#00564b"/><stop offset="0.1" stop-color="#00674b"/><stop offset="0.37" stop-color="#008f4b"/><stop offset="0.59" stop-color="#00a74b"/><stop offset="0.72" stop-color="#00b04b"/></linearGradient></defs><g id="Capa_2" data-name="Capa 2"><g id="Capa_1-2" data-name="Capa 1"><path class="cls-1" d="M204.25,141.08V71.43c.5-29.73,44.76-29.77,45.27,0v69.65C249,170.82,204.75,170.85,204.25,141.08Z"/><path class="cls-2" d="M276.51,38.35H177.26a19.16,19.16,0,1,1,0-38.31h99.25a19.16,19.16,0,0,1,0,38.31Z"/><circle class="cls-3" cx="383.57" cy="80.31" r="23.64"/><path class="cls-4" d="M423.31,127.08a10.64,10.64,0,0,0-13.92-4.85q-3.21,1.45-6.55,2.74a46.83,46.83,0,0,1-47.77-79.52,33.45,33.45,0,0,1,13-7.44,46.89,46.89,0,0,1,40.2,3.48,10.21,10.21,0,0,0,13-1.86c.22-.26.44-.54.64-.83l.06-.1a19.75,19.75,0,0,0,3.31-11.46q0-12-12.85-19.6T376.12,0a89,89,0,0,0-31.06,5.35,71.6,71.6,0,0,0-25.33,15.78,74.16,74.16,0,0,0-17.06,25.59q-6.24,15.15-6.24,35,0,21.39,6.49,36.79A70.25,70.25,0,0,0,320.62,144a71.39,71.39,0,0,0,26.22,14.9,104.23,104.23,0,0,0,32.08,4.84q23.68,0,35.27-7.26t11.58-17.7a26.18,26.18,0,0,0-2.42-11.58Z"/><path class="cls-5" d="M375.74,34.33a69.73,69.73,0,0,1,10.08.74,46.73,46.73,0,0,1,22.44,6.42,10.21,10.21,0,0,0,13-1.86c.22-.26.44-.54.64-.83l.06-.1a19.75,19.75,0,0,0,3.31-11.46q0-12-12.85-19.6T376.12,0a89,89,0,0,0-31.06,5.35,71.6,71.6,0,0,0-25.33,15.78,74.16,74.16,0,0,0-17.06,25.59q-6.24,15.15-6.24,35,0,21.39,6.49,36.79a71.41,71.41,0,0,0,15.07,23A69.13,69.13,0,0,1,375.74,34.33Z"/><path class="cls-6" d="M181.88,141.37a22.88,22.88,0,0,1-42.7,11.47L119.08,118,93,72.77l-1.89-3.29-1.1-2c2-7.36,7.85-12,15-16.07a34.46,34.46,0,0,1,17.33-4.67A35.13,35.13,0,0,1,131.49,48l47.33,82A22.89,22.89,0,0,1,181.88,141.37Z"/><path class="cls-7" d="M131.49,48a35.13,35.13,0,0,0-9.24-1.25,34.46,34.46,0,0,0-17.33,4.67c-7.11,4.1-14,17.86-14,17.86l-2,3.49L62.52,118.52H47.72A22.88,22.88,0,0,1,25.19,91.65L33,78.15,71,12.28A22.76,22.76,0,0,1,88.16,1a.9.9,0,0,1,.16,0C88.88.94,89.45.89,90,.87h1.86c.57,0,1.13.07,1.69.13a.76.76,0,0,1,.16,0,22.76,22.76,0,0,1,17.14,11.25Z"/><path class="cls-8" d="M109.3,125.23a22.82,22.82,0,0,0-16.18-6.71H47.72A22.88,22.88,0,0,1,25.19,91.65L3.07,130a22.88,22.88,0,0,0,19.8,34.32,16.48,16.48,0,0,0,1.85-.09,16.67,16.67,0,0,0,1.88.09H93.12a22.87,22.87,0,0,0,16.18-39Z"/></g></g></svg>